:SAMPLES-PER-SECOND 30
:FULLY-SPECIFIED
:DEGREES
34
root  64.7297 39.0202 -0.0572662 -173.317 -80.4204 173.554
RightUpLeg  -24.8742 -20.7647 2.50053
RightLeg  20.2588 -5.95273 -2.62575
RightFoot  -3.68924 -0.492343 6.97143
RightToes  0.000482159 0.542163 -0.142577
Spine  14.9069 -1.30922 -2.23258
Spine1  9.05015 -2.26592 1.6434
HEad  -7.55829 -12.3895 6.56487
LeftShoulder1  8.30615 -12.3896 -45.5608
LeftArm  6.18385 -5.68778 -35.7579
LeftForeArm  34.4953 -18.8917 -4.51261
LeftHand  -0.25398 0.0180481 5.50724
RightShoulder  4.40151 7.605 33.6755
RightArm  -14.1604 -22.1254 44.7537
RightForeArm  16.487 20.0687 3.95504
RightHand  -1.30414 5.06875 -14.762
LeftUpLeg  8.86441 7.8672 1.11743
LeftLeg  11.2461 20.198 -1.7477
LeftFoot  -19.1816 -0.251732 -5.33766
LeftToes  1.06248e-005 4.65856e-005 -8.18499e-006
35
root  63.6958 38.8829 -0.116541 -175.243 -79.968 176.252
RightUpLeg  -25.6944 -20.062 4.12589
RightLeg  15.7704 -3.87286 -0.823038
RightFoot  -2.07802 -0.46078 5.56402
RightToes  0.000482159 0.542163 -0.142577
Spine  15.1709 -1.52434 -2.26281
Spine1  8.98969 -2.71767 2.45413
HEad  -8.20484 -10.0938 5.91379
LeftShoulder1  8.39138 -12.5674 -45.5185
LeftArm  11.4785 -7.27121 -38.8195
LeftForeArm  34.0292 -22.2171 -3.5031
LeftHand  -0.25398 0.0180481 5.50724
RightShoulder  4.44938 7.73153 33.6556
RightArm  -14.8021 -21.4223 43.7305
RightForeArm  12.9973 18.6701 4.17512
RightHand  -1.46073 5.0373 -16.5286
LeftUpLeg  10.4553 7.50207 1.45826
LeftLeg  9.89104 20.5459 -2.34375
LeftFoot  -19.6033 -0.358106 -6.58546
LeftToes  1.06248e-005 4.65856e-005 -8.18499e-006
36
root  62.5722 38.7529 -0.226771 -179.005 -79.8349 -179.422
RightUpLeg  -26.0456 -16.4242 4.3709
RightLeg  14.8956 -4.02474 0.000707458
RightFoot  -0.157276 -0.243525 2.4731
RightToes  0.000482159 0.542163 -0.142577
Spine  15.8124 -1.87014 -1.49598
Spine1  8.77045 -3.16794 2.96892
HEad  -8.93397 -8.29125 5.37641
LeftShoulder1  8.45698 -12.7376 -45.3895
LeftArm  12.578 -8.42135 -41.2707
LeftForeArm  36.9594 -25.2573 -3.41662
LeftHand  -0.25398 0.0180481 5.50724
RightShoulder  4.38803 7.62684 33.4776
RightArm  -15.299 -20.5982 42.5105
RightForeArm  10.8616 17.6101 4.34112
RightHand  -1.50326 5.06474 -16.9472
LeftUpLeg  12.1623 7.81998 2.41086
LeftLeg  9.18364 20.2907 -2.50559
LeftFoot  -19.6246 -0.409381 -7.27309
LeftToes  1.06248e-005 4.65856e-005 -8.18499e-006
37
root  61.3445 38.6137 -0.385146 174.521 -80.0586 -172.722
RightUpLeg  -26.4926 -15.4664 5.84108
RightLeg  17.5016 -2.65149 -0.720893
RightFoot  0.491434 0.0453127 -0.431327
RightToes  0.000482159 0.542163 -0.142577
Spine  16.6696 -2.55702 0.423805
Spine1  8.73138 -3.61986 2.6843
HEad  -9.97564 -6.7981 4.97661
LeftShoulder1  8.46743 -12.8184 -45.2141
LeftArm  11.7325 -9.33332 -42.9666
LeftForeArm  40.6453 -28.0771 -3.88671
LeftHand  -0.25398 0.0180481 5.50724
RightShoulder  4.31559 7.45732 33.4269
RightArm  -15.7331 -19.5769 41.1798
RightForeArm  9.94862 17.2119 4.38777
RightHand  -1.60901 5.67916 -17.1348
LeftUpLeg  13.5866 9.52882 4.29204
LeftLeg  10.3876 18.0818 -1.627
LeftFoot  -19.8795 -0.484679 -8.03029
LeftToes  1.06248e-005 4.65856e-005 -8.18499e-006
38
root  60.0251 38.4643 -0.604515 167.378 -80.3903 -165.557
RightUpLeg  -26.3218 -14.3451 6.52257
RightLeg  21.6079 -3.39503 -1.75312
RightFoot  -0.465696 0.189567 -2.02854
RightToes  0.000482159 0.542163 -0.142577
Spine  17.501 -3.3783 2.7587
Spine1  8.84875 -3.96624 2.0169
HEad  -11.0808 -5.32075 4.5466
LeftShoulder1  8.43889 -12.8182 -45.0564
LeftArm  10.8886 -9.80489 -43.8773
LeftForeArm  42.5974 -30.6289 -4.35183
LeftHand  -0.25398 0.0180481 5.50724
RightShoulder  4.35435 7.4996 33.6257
RightArm  -16.265 -18.3924 39.7292
RightForeArm  9.72172 17.3095 4.33574
RightHand  -1.86276 6.9334 -17.826
LeftUpLeg  14.4443 14.1418 7.20821
LeftLeg  13.69 11.5881 0.203411
LeftFoot  -20.0002 -0.755163 -11.5702
LeftToes  1.06248e-005 4.65856e-005 -8.18499e-006
39
root  58.6784 38.3694 -0.884769 162.878 -80.6578 -160.805
RightUpLeg  -25.9031 -13.3808 6.61181
RightLeg  25.1296 -4.79634 -2.67063
RightFoot  -2.54531 0.205453 -2.89914
RightToes  0.000482159 0.542163 -0.142577
Spine  18.1166 -3.91033 4.59711
Spine1  8.85212 -4.05921 1.71407
HEad  -11.9673 -4.14855 4.17177
LeftShoulder1  8.39205 -12.8043 -44.8353
LeftArm  9.82558 -9.43681 -44.1711
LeftForeArm  42.8537 -32.5858 -4.78793
LeftHand  -0.25398 0.0180481 5.50724
RightShoulder  4.45664 7.74141 33.686
RightArm  -16.9388 -17.3738 38.6324
RightForeArm  9.45088 18.0768 4.25308
RightHand  -2.03844 7.8099 -18.2158
LeftUpLeg  13.4146 18.696 9.59668
LeftLeg  19.574 5.73242 2.76903
LeftFoot  -17.573 -0.790413 -16.7731
LeftToes  1.06248e-005 4.65856e-005 -8.18499e-006
40
root  57.3511 38.3553 -1.18911 161.062 -80.8263 -158.329
RightUpLeg  -25.4018 -13.3412 6.75736
RightLeg  27.3044 -5.04151 -3.05139
RightFoot  -5.26447 0.140796 -3.30068
RightToes  0.000482159 0.542163 -0.142577
Spine  18.4617 -4.06352 6.1348
Spine1  8.70708 -3.80387 1.62517
HEad  -12.6816 -3.98333 4.25822
LeftShoulder1  8.30917 -12.7907 -44.411
LeftArm  8.29728 -8.41854 -44.0157
LeftForeArm  41.8121 -33.4241 -5.04116
LeftHand  -0.25398 0.0180481 5.50724
RightShoulder  4.49162 7.94156 33.3004
RightArm  -17.6225 -16.6068 38.3
RightForeArm  8.15441 20.0323 4.28061
RightHand  -2.00107 7.65358 -18.0981
LeftUpLeg  8.54343 16.0094 9.25911
LeftLeg  29.7965 9.47267 6.26504
LeftFoot  -10.5448 0.130871 -17.4735
LeftToes  1.06248e-005 4.65856e-005 -8.18499e-006
41
root  56.0498 38.3821 -1.46908 158.906 -80.7643 -155.439
RightUpLeg  -24.3512 -13.9051 7.10167
RightLeg  28.3428 -4.42681 -2.82565
RightFoot  -7.94309 0.0351344 -2.96172
RightToes  0.000482159 0.542163 -0.142577
Spine  18.7178 -4.05102 8.16294
Spine1  8.64209 -3.20579 1.17473
HEad  -14.1556 -0.828011 2.10333
LeftShoulder1  8.22285 -12.7684 -43.9904
LeftArm  6.41667 -7.34854 -43.2231
LeftForeArm  40.0219 -33.089 -5.05603
LeftHand  -0.25398 0.0180481 5.50724
RightShoulder  4.44567 7.98906 32.7399
RightArm  -18.5039 -15.6272 38.3086
RightForeArm  6.03029 23.298 4.69112
RightHand  -1.98421 7.17577 -18.5935
LeftUpLeg  1.47147 13.994 8.70039
LeftLeg  41.9062 11.1536 10.8349
LeftFoot  -0.792227 0.999834 -11.0101
LeftToes  1.06248e-005 4.65856e-005 -8.18499e-006
42
root  54.7721 38.3794 -1.70737 155.482 -80.3897 -151.494
RightUpLeg  -22.7996 -14.3521 7.56445
RightLeg  29.0526 -3.94206 -2.61658
RightFoot  -10.3021 -0.0497883 -2.22441
RightToes  0.000482159 0.542163 -0.142577
Spine  19.0998 -3.98589 10.7298
Spine1  8.78912 -2.3738 0.54184
HEad  -17.3502 10.9057 -6.11454
LeftShoulder1  8.22338 -12.7747 -43.9752
LeftArm  4.23226 -6.23692 -41.5523
LeftForeArm  38.3174 -32.3158 -4.96214
LeftHand  -0.25398 0.0180481 5.50724
RightShoulder  4.39535 7.95242 32.4249
RightArm  -19.9515 -14.002 37.9346
RightForeArm  4.62335 27.5897 5.70435
RightHand  -2.16296 7.29433 -20.0142
LeftUpLeg  -5.82335 11.9742 8.13178
LeftLeg  52.0945 8.55293 11.9318
LeftFoot  4.91168 0.582605 -4.03471
LeftToes  1.06248e-005 4.65856e-005 -8.18499e-006
43
root  53.4098 38.4777 -1.9616 156.428 -79.952 -152.054
RightUpLeg  -20.5212 -14.25 7.20779
RightLeg  28.7693 -3.71158 -2.45792
RightFoot  -12.3268 -0.0950023 -1.40282
RightToes  0.000482159 0.542163 -0.142577
Spine  19.4136 -3.59191 12.2003
Spine1  8.95693 -1.49162 0.0411421
HEad  -18.218 8.77669 -5.6447
LeftShoulder1  8.30146 -12.8153 -44.2982
LeftArm  1.6143 -4.51586 -39.2203
LeftForeArm  37.0481 -31.6685 -4.87742
LeftHand  -0.25398 0.0180481 5.50724
RightShoulder  4.36656 7.8942 32.3681
RightArm  -21.338 -11.8034 37.1575
RightForeArm  4.15226 32.7192 7.01119
RightHand  -2.37403 7.71038 -21.2338
LeftUpLeg  -12.1352 10.1037 6.82149
LeftLeg  58.3442 4.90346 9.07743
LeftFoot  4.17722 0.244107 -2.00241
LeftToes  1.06248e-005 4.65856e-005 -8.18499e-006
